<svg xmlns="http://www.w3.org/2000/svg" viewBox="0 0 511.86 223.99"><defs><style>.cls-1{fill:#231f20;}.cls-2{font-size:30.15px;fill:#cb2026;font-family:Montserrat-ExtraBoldItalic, Montserrat;font-weight:800;font-style:italic;}.cls-3{letter-spacing:-0.01em;}.cls-4{fill:#f8f4f5;}.cls-5{fill:none;stroke:#cb2026;stroke-miterlimit:10;stroke-width:5px;}</style></defs><g id="Layer_2" data-name="Layer 2"><g id="Layer_1-2" data-name="Layer 1"><path class="cls-1" d="M235.19,137h57.62a7.07,7.07,0,0,1,6.28,3.82l20.08,38.77a7.06,7.06,0,0,1-6.27,10.32H255.28A7.07,7.07,0,0,1,249,186l-20.08-38.77A7.07,7.07,0,0,1,235.19,137Z"/><path class="cls-1" d="M195.81,138.29H90.16a7,7,0,0,1-6.71-9l36.32-120a7,7,0,0,0-6.7-9L54.61.05A7,7,0,0,0,47.9,5L.31,158.75a7,7,0,0,0,.48,5.3l11.4,22a7,7,0,0,0,6.23,3.78H212a7,7,0,0,0,6.44-9.79l-16.23-37.55A7,7,0,0,0,195.81,138.29Z"/><path class="cls-1" d="M312.72,96.77l17.43-68.86a7.07,7.07,0,0,0-.53-4.91L320.15,4A7.14,7.14,0,0,0,313.77,0H144.32a7.11,7.11,0,0,0-6.89,5.33l-28,107.75a7.13,7.13,0,0,0,6.9,8.91h173.1a7.13,7.13,0,0,0,5.49-2.59l16.41-19.84A7.23,7.23,0,0,0,312.72,96.77Z"/><path class="cls-1" d="M493.09,86a7.06,7.06,0,0,0-6.66-9.44H411.3a7.07,7.07,0,0,0-6.85,5.33l-5.1,20.15a7.07,7.07,0,0,0,6.85,8.81h8.73A7.06,7.06,0,0,1,421.7,120l-3.54,11.93a7.06,7.06,0,0,1-6.77,5.06H385.34a7.08,7.08,0,0,1-6.78-9.08l25-84.24a7.07,7.07,0,0,1,6.78-5.05h85.72a7.07,7.07,0,0,0,6.65-4.69l8.74-24.44A7.07,7.07,0,0,0,504.78,0H378.06a7,7,0,0,0-5.12,2.2l-20.8,21.86a7.11,7.11,0,0,0-1.71,3l-29,107.21a7.1,7.1,0,0,0,.54,5.1L346.11,186a7.06,7.06,0,0,0,6.28,3.82h98.78a7.06,7.06,0,0,0,6.66-4.7Z"/><text class="cls-2" transform="translate(12.08 215.91)"><tspan class="cls-3">L</tspan><tspan x="18.06" y="0">ONDON REFEREES GROUP</tspan></text><path class="cls-4" d="M271.59,54.6a31.05,31.05,0,0,0-5.66-17.91,8,8,0,0,0-12.26-10.31,31.17,31.17,0,0,0-27.55.53l-.05-.09-.94.62c-1.35.76-6.68,5.9-7.9,6.84l-8.82,9.32L205,47.46a35.07,35.07,0,0,1-26.1,11.64H123.32L117.42,82h70.15q7.71,0,15.41.64l18.8,1.56c1.77.31,16.78,1.58,18.64,1.58h.4A31.16,31.16,0,0,0,271.59,54.6Z"/><circle class="cls-5" cx="240.66" cy="54.6" r="20.32"/></g></g></svg>